<svg width="24" height="24" viewBox="0 0 24 24" fill="none" xmlns="http://www.w3.org/2000/svg">
<path d="M16.035 15.4865C15.3112 16.129 14.4068 16.9281 12.7666 16.9281H11.7855C11.2239 16.9385 10.6658 16.8366 10.144 16.6285C9.62221 16.4204 9.1472 16.1102 8.74678 15.7162C7.98237 14.9279 7.56162 13.8687 7.57674 12.7708V11.4285C7.56194 10.3309 7.98266 9.27223 8.74678 8.48422C9.1472 8.09021 9.62221 7.78007 10.144 7.57197C10.6658 7.36387 11.2239 7.26199 11.7855 7.27231H12.7666C14.408 7.27231 15.3112 8.07028 16.035 8.70794C16.7875 9.37073 17.436 9.94977 19.1659 9.94977C19.43 9.94956 19.6936 9.92836 19.9543 9.88636L19.9471 9.87081C19.8449 9.61356 19.725 9.36372 19.5882 9.12308L18.4313 7.12037C17.9098 6.21755 17.1599 5.46787 16.2569 4.94665C15.3539 4.42543 14.3296 4.15102 13.287 4.151H10.9696C9.92699 4.15102 8.90273 4.42543 7.99973 4.94665C7.09673 5.46787 6.3468 6.21755 5.82527 7.12037L4.66839 9.12308C4.14753 10.0264 3.87335 11.0509 3.87335 12.0936C3.87335 13.1364 4.14753 14.1608 4.66839 15.0642L5.82527 17.0669C6.34674 17.9699 7.09662 18.7197 7.99961 19.2412C8.9026 19.7626 9.9269 20.0372 10.9696 20.0375H13.2834C14.3261 20.0372 15.3504 19.7626 16.2534 19.2412C17.1564 18.7197 17.9063 17.9699 18.4277 17.0669L19.5846 15.0666C19.7216 14.8265 19.8416 14.577 19.9435 14.3201L19.9507 14.3057C19.6902 14.2617 19.4265 14.2397 19.1623 14.2399C17.4324 14.2399 16.7839 14.8154 16.0314 15.4805" fill="white"/>
<path d="M12.7688 8.48828H11.7878C9.98127 8.48828 8.79688 9.77796 8.79688 11.4289V12.7713C8.79688 14.4234 9.98366 15.7131 11.7878 15.7131H12.7688C15.4008 15.7131 15.1938 13.0297 19.1681 13.0297C19.5446 13.0286 19.9203 13.063 20.2903 13.1326C20.4112 12.45 20.4112 11.7514 20.2903 11.0688C19.9202 11.1372 19.5445 11.1716 19.1681 11.1717C15.1926 11.1717 15.4008 8.48828 12.7688 8.48828" fill="#006BFF"/>
<path d="M22.5725 14.113C21.8958 13.6171 21.1153 13.2812 20.2899 13.1308V13.1512C20.2181 13.5465 20.107 13.9336 19.9585 14.3069C20.6401 14.4128 21.2868 14.6794 21.8451 15.0845C21.8462 15.0904 21.8462 15.0965 21.8451 15.1024C21.4513 16.3802 20.8095 17.5678 19.9564 18.5974C19.1034 19.627 18.0557 20.4784 16.8735 21.103C15.6912 21.7275 14.3974 22.1129 13.0661 22.2372C11.7348 22.3614 10.3921 22.2221 9.11465 21.8272C7.83731 21.4328 6.65019 20.7907 5.62111 19.9374C4.59203 19.0841 3.74115 18.0364 3.1171 16.8542C2.49305 15.672 2.10804 14.3784 1.98409 13.0473C1.86013 11.7163 1.99966 10.3738 2.39469 9.0967C2.78836 7.81948 3.42994 6.63238 4.28275 5.60331C5.13556 4.57423 6.18287 3.72336 7.36477 3.09935C8.54668 2.47534 9.83999 2.09044 11.1708 1.96665C12.5015 1.84287 13.8437 1.98263 15.1204 2.37794C16.7038 2.86533 18.1442 3.73221 19.3162 4.90318C20.4882 6.07414 21.3563 7.51372 21.8451 9.0967C21.844 9.10304 21.844 9.10951 21.8451 9.11584C21.2869 9.5207 20.6401 9.78648 19.9585 9.89109C20.1069 10.2652 20.2179 10.6532 20.2899 11.0492C20.2887 11.0555 20.2887 11.062 20.2899 11.0683C21.115 10.9178 21.8954 10.5824 22.5725 10.0873C23.2233 9.60875 23.0965 9.06081 22.9984 8.73899C22.1067 5.8488 20.1035 3.43113 17.4294 2.01771C14.7554 0.60428 11.6294 0.310837 8.73899 1.20191C5.8488 2.09365 3.43113 4.09683 2.01771 6.7709C0.604279 9.44497 0.310837 12.5709 1.20191 15.4613C2.09338 18.3517 4.09652 20.7696 6.77067 22.1831C9.44483 23.5965 12.5709 23.8898 15.4613 22.9984C17.2365 22.4509 18.851 21.4781 20.1646 20.1646C21.4781 18.851 22.4509 17.2365 22.9984 15.4613C23.0965 15.1395 23.2233 14.5952 22.5725 14.1142" fill="white"/>
<path d="M19.9542 9.89259C19.694 9.93542 19.4307 9.95743 19.167 9.95839C17.4371 9.95839 16.7874 9.38294 16.0373 8.71656C15.3111 8.07292 14.4091 7.27375 12.7677 7.27375H11.7866C11.2249 7.26366 10.6668 7.36576 10.145 7.57406C9.62322 7.78237 9.14824 8.09269 8.74789 8.48686C7.98377 9.27487 7.56304 10.3336 7.57785 11.4311V12.7734C7.56273 13.8714 7.98347 14.9306 8.74789 15.7189C9.1483 16.1129 9.62332 16.423 10.1451 16.6311C10.6669 16.8392 11.225 16.9411 11.7866 16.9308H12.7677C14.4091 16.9308 15.3111 16.1316 16.0373 15.4951C16.7874 14.8324 17.4371 14.2533 19.167 14.2533C19.4307 14.2535 19.6939 14.2747 19.9542 14.3167C20.1059 13.9417 20.2185 13.552 20.2904 13.1539V13.1335C19.9198 13.0656 19.5438 13.0316 19.167 13.0318C15.1915 13.0318 15.3997 15.7165 12.7677 15.7165H11.7866C9.98014 15.7165 8.79575 14.4256 8.79575 12.7734V11.4287C8.79575 9.77774 9.98134 8.48806 11.7866 8.48806H12.7677C15.3997 8.48806 15.1927 11.1715 19.167 11.1715C19.5439 11.1716 19.9199 11.1367 20.2904 11.0674V11.0495C20.2187 10.6536 20.1073 10.2661 19.9578 9.89259" fill="#0AE8F0"/>
</svg>
