<svg width="18" height="18" viewBox="0 0 18 18" fill="none" xmlns="http://www.w3.org/2000/svg">
<path d="M2.72789 0.645752C1.67311 0.645752 0.818039 1.50055 0.818039 2.555C0.818039 3.60945 1.67311 4.46424 2.72789 4.46424C3.78267 4.46424 4.63774 3.60945 4.63774 2.555C4.63774 1.50055 3.78267 0.645752 2.72789 0.645752Z" fill="#FFF6F6"/>
<path d="M0.930383 6.03656C0.868337 6.03656 0.818039 6.08685 0.818039 6.14887V17.829C0.818039 17.891 0.868337 17.9413 0.930383 17.9413H4.52539C4.58744 17.9413 4.63774 17.891 4.63774 17.829V6.14887C4.63774 6.08685 4.58744 6.03656 4.52539 6.03656H0.930383Z" fill="#FFF6F6"/>
<path d="M6.77227 6.03656C6.71023 6.03656 6.65993 6.08685 6.65993 6.14887V17.829C6.65993 17.891 6.71023 17.9413 6.77227 17.9413H10.3673C10.4293 17.9413 10.4796 17.891 10.4796 17.829V11.5397C10.4796 11.0929 10.6572 10.6644 10.9732 10.3485C11.2892 10.0325 11.7179 9.85506 12.1648 9.85506C12.6117 9.85506 13.0403 10.0325 13.3564 10.3485C13.6724 10.6644 13.8499 11.0929 13.8499 11.5397V17.829C13.8499 17.891 13.9002 17.9413 13.9623 17.9413H17.5573C17.6193 17.9413 17.6696 17.891 17.6696 17.829V10.0844C17.6696 7.90403 15.7727 6.19828 13.6026 6.3955C12.9334 6.45632 12.2717 6.62264 11.6538 6.88736L10.4796 7.39043V6.14887C10.4796 6.08685 10.4293 6.03656 10.3673 6.03656H6.77227Z" fill="#FFF6F6"/>
</svg>
