<svg width="36" height="30" viewBox="0 0 36 30" fill="none" xmlns="http://www.w3.org/2000/svg">
<path fill-rule="evenodd" clip-rule="evenodd" d="M0.369435 7.75178C-0.167637 12.9253 -0.143697 18.8921 0.603646 24.0446C1.01717 26.8957 3.2615 29.0813 6.03189 29.331L8.9272 29.5919C14.9643 30.136 21.0356 30.136 27.0728 29.5919L29.9681 29.331C32.7385 29.0813 34.9828 26.8957 35.3963 24.0446C36.1437 18.8921 36.1677 12.9257 35.6306 7.75209C35.5611 7.15231 35.4831 6.55333 35.3963 5.95536C34.9828 3.10435 32.7385 0.918682 29.9681 0.669004L27.0728 0.408067C21.0356 -0.136023 14.9643 -0.136022 8.9272 0.408068L6.03188 0.669004C3.2615 0.918682 1.01717 3.10435 0.603646 5.95536C0.516929 6.55323 0.438859 7.1521 0.369435 7.75178ZM9.17624 3.37828C15.0477 2.84913 20.9523 2.84913 26.8237 3.37828L29.719 3.63922C31.1652 3.76955 32.3367 4.91047 32.5526 6.39871C32.575 6.55326 32.5968 6.70788 32.618 6.86257L21.9568 13.0032C19.496 14.4206 16.5038 14.4206 14.043 13.0032L3.38194 6.86264C3.40314 6.70793 3.42495 6.55328 3.44737 6.39871C3.66323 4.91047 4.83478 3.76955 6.28092 3.63922L9.17624 3.37828ZM32.9699 10.0705C33.3418 14.5779 33.2027 19.1193 32.5526 23.6013C32.3367 25.0895 31.1652 26.2304 29.7191 26.3608L26.8237 26.6217C20.9523 27.1509 15.0477 27.1509 9.17624 26.6217L6.28093 26.3608C4.83478 26.2304 3.66323 25.0895 3.44737 23.6013C2.79729 19.1193 2.65818 14.578 3.03005 10.0706L12.6464 15.6094C15.9758 17.5271 20.0241 17.5271 23.3534 15.6094L32.9699 10.0705Z" fill="#EF6D58" fill-opacity="0.69"/>
</svg>
