<svg width="21" height="17" viewBox="0 0 21 17" fill="none" xmlns="http://www.w3.org/2000/svg">
<path fill-rule="evenodd" clip-rule="evenodd" d="M0.215504 4.39267C-0.0977883 7.32435 -0.0838231 10.7055 0.352127 13.6253C0.593348 15.2409 1.90254 16.4794 3.5186 16.6209L5.20754 16.7688C8.7292 17.0771 12.2708 17.0771 15.7925 16.7688L17.4814 16.6209C19.0974 16.4794 20.4066 15.2409 20.6479 13.6253C21.0838 10.7055 21.0978 7.32454 20.7845 4.39285C20.744 4.05297 20.6985 3.71355 20.6479 3.3747C20.4066 1.75913 19.0974 0.520586 17.4814 0.379102L15.7924 0.231238C12.2708 -0.0770795 8.7292 -0.0770793 5.20753 0.231238L3.5186 0.379103C1.90254 0.520587 0.593348 1.75913 0.352127 3.3747C0.301542 3.7135 0.256001 4.05286 0.215504 4.39267ZM5.35281 1.91436C8.77781 1.61451 12.2222 1.61451 15.6472 1.91436L17.3361 2.06222C18.1797 2.13608 18.8631 2.7826 18.989 3.62593C19.0021 3.71351 19.0148 3.80113 19.0272 3.88879L12.8082 7.36847C11.3727 8.17166 9.62722 8.17166 8.19174 7.36847L1.9728 3.88883C1.98516 3.80116 1.99789 3.71353 2.01097 3.62593C2.13689 2.7826 2.82029 2.13608 3.66387 2.06222L5.35281 1.91436ZM19.2325 5.70662C19.4494 8.26082 19.3682 10.8343 18.989 13.3741C18.8631 14.2174 18.1797 14.8639 17.3361 14.9378L15.6472 15.0856C12.2222 15.3855 8.7778 15.3855 5.35281 15.0856L3.66387 14.9378C2.82029 14.8639 2.13689 14.2174 2.01097 13.3741C1.63175 10.8343 1.55061 8.26085 1.76753 5.70666L7.37708 8.84534C9.3192 9.93199 11.6807 9.932 13.6228 8.84534L19.2325 5.70662Z" fill="white"/>
</svg>
