<svg width="48" height="44" viewBox="0 0 48 44" fill="none" xmlns="http://www.w3.org/2000/svg">
    <path d="M13.2374 15.4882C11.3135 15.4882 9.7539 17.1611 9.7539 19.2248C9.7539 21.2885 11.3135 22.9615 13.2374 22.9615C15.1613 22.9615 16.721 21.2885 16.721 19.2248C16.721 17.1611 15.1613 15.4882 13.2374 15.4882Z" fill="white"/>
    <path d="M24.3848 15.4882C22.4608 15.4882 20.9012 17.1611 20.9012 19.2248C20.9012 21.2885 22.4608 22.9615 24.3848 22.9615C26.3087 22.9615 27.8683 21.2885 27.8683 19.2248C27.8683 17.1611 26.3087 15.4882 24.3848 15.4882Z" fill="white"/>
    <path d="M32.0485 19.2248C32.0485 17.1611 33.6082 15.4882 35.5321 15.4882C37.456 15.4882 39.0156 17.1611 39.0156 19.2248C39.0156 21.2885 37.456 22.9615 35.5321 22.9615C33.6082 22.9615 32.0485 21.2885 32.0485 19.2248Z" fill="white"/>
    <path fill-rule="evenodd" clip-rule="evenodd" d="M35.8128 0.818894C28.3045 0.132067 20.757 0.0922075 13.2429 0.6997L12.7043 0.743236C5.53856 1.32256 0 7.72819 0 15.4365V40.8975C0 41.6863 0.386438 42.417 1.01761 42.8218C1.64877 43.2265 2.4318 43.2457 3.07955 42.8723L13.9783 36.5896C14.4852 36.2974 15.0518 36.1444 15.6273 36.1444H40.643C43.798 36.1444 46.5017 33.7249 47.0672 30.3955C48.2134 23.6479 48.3039 16.7426 47.3352 9.96313L47.0497 7.96528C46.5299 4.32801 43.7559 1.5455 40.3378 1.23283L35.8128 0.818894ZM13.557 5.17101C20.8484 4.58154 28.172 4.62021 35.4576 5.28667L39.9826 5.70061C41.4773 5.83734 42.6904 7.05411 42.9177 8.64466L43.2032 10.6425C44.1016 16.9299 44.0177 23.3339 42.9547 29.5917C42.7512 30.7898 41.7783 31.6604 40.643 31.6604H15.6273C14.3611 31.6604 13.1147 31.9969 11.9994 32.6399L4.18024 37.1473V15.4365C4.18024 10.0739 8.03336 5.61758 13.0185 5.21455L13.557 5.17101Z" fill="white"/>
</svg>
