<svg width="47" height="47" viewBox="0 0 47 47" fill="none" xmlns="http://www.w3.org/2000/svg">
    <path fill-rule="evenodd" clip-rule="evenodd" d="M33.8597 0.853896C33.4591 0.485322 32.9157 0.278259 32.3491 0.278259C31.7825 0.278259 31.2391 0.485322 30.8385 0.853896L4.65408 24.9422C4.38568 25.1891 4.19363 25.4974 4.0977 25.8352L1.24922 35.8675C1.05755 36.5426 1.2693 37.2605 1.8056 37.7539C2.3419 38.2472 3.12233 38.442 3.85615 38.2657L14.7614 35.6453C15.1286 35.557 15.4637 35.3803 15.7321 35.1334L41.9165 11.0451C42.7508 10.2776 42.7508 9.0332 41.9165 8.26568L33.8597 0.853896ZM8.08524 27.3446L32.3491 5.02303L37.3846 9.65539L13.1207 31.9769L6.30494 33.6147L8.08524 27.3446Z" fill="white"/>
    <path d="M2.13636 42.2057C0.956483 42.2057 0 43.0856 0 44.171C0 45.2564 0.956483 46.1364 2.13636 46.1364H44.8636C46.0435 46.1364 47 45.2564 47 44.171C47 43.0856 46.0435 42.2057 44.8636 42.2057H2.13636Z" fill="white"/>
</svg>
